<?xml version="1.0" encoding="UTF-8" standalone="no"?>
<svg width="80px" height="90px" viewBox="0 0 80 90" version="1.1" xmlns="http://www.w3.org/2000/svg" xmlns:xlink="http://www.w3.org/1999/xlink" xmlns:sketch="http://www.bohemiancoding.com/sketch/ns">
    <!-- Generator: Sketch Beta 3.5.1 (25233) - http://www.bohemiancoding.com/sketch -->
    <title>ghost</title>
    <desc>Created with Sketch Beta.</desc>
    <defs></defs>
    <g id="Page-1" stroke="none" stroke-width="1" fill="none" fill-rule="evenodd" sketch:type="MSPage">
        <g id="ghost" sketch:type="MSLayerGroup" fill="#000000">
            <g id="Group" sketch:type="MSShapeGroup">
                <path d="M78.49,35.4 C78.49,15.86 62.65,0.03 43.12,0.03 L36.88,0.03 C17.35,0.03 1.51,15.86 1.51,35.4 L0.65,81.58 L0.65,81.86 C0.65,86.339 4.17,89.969 8.52,89.969 C12.86,89.969 16.39,86.339 16.39,81.86 C16.39,77.37 19.91,73.74 24.26,73.74 C28.61,73.74 32.13,77.37 32.13,81.86 C32.13,86.339 35.65,89.969 40,89.969 C44.35,89.969 47.87,86.339 47.87,81.86 C47.87,77.37 51.39,73.74 55.74,73.74 C60.09,73.74 63.61,77.37 63.61,81.86 C63.61,86.339 67.13,89.969 71.48,89.969 C75.83,89.969 79.349,86.339 79.349,81.86 L79.349,81.58 L78.49,35.4 L78.49,35.4 Z M14.74,50.06 C8.72,50.06 3.85,43.34 3.85,35.05 C3.85,26.76 8.72,20.04 14.74,20.04 C20.75,20.04 25.62,26.76 25.62,35.05 C25.62,43.34 20.75,50.06 14.74,50.06 L14.74,50.06 Z M43.32,50.06 C37.31,50.06 32.43,43.34 32.43,35.05 C32.43,26.76 37.31,20.04 43.32,20.04 C49.33,20.04 54.21,26.76 54.21,35.05 C54.21,43.34 49.33,50.06 43.32,50.06 L43.32,50.06 Z" id="Shape"></path>
                <path d="M16.879,28.247 C16.879,31.611 14.559,34.34 11.696,34.34 C8.833,34.34 6.513,31.611 6.513,28.247 C6.513,24.883 8.833,22.156 11.696,22.156 C14.559,22.156 16.879,24.883 16.879,28.247 L16.879,28.247 Z" id="Shape"></path>
                <path d="M40.304,22.156 C37.442,22.156 35.121,24.884 35.121,28.247 C35.121,31.611 37.441,34.34 40.304,34.34 C43.167,34.34 45.487,31.611 45.487,28.247 C45.486,24.883 43.166,22.156 40.304,22.156 L40.304,22.156 Z" id="Shape"></path>
            </g>
        </g>
    </g>
</svg>